<svg width="33" height="33" viewBox="0 0 33 33" fill="none" xmlns="http://www.w3.org/2000/svg">
<path fill-rule="evenodd" clip-rule="evenodd" d="M16.4846 0.820312C15.4529 0.820312 14.516 1.11611 13.4974 1.61008C12.5153 2.08803 11.3788 2.79328 9.96096 3.6734L6.94905 5.54291C5.60848 6.3764 4.53165 7.04377 3.704 7.67762C2.84574 8.33334 2.18711 9.00362 1.71063 9.87354C1.2356 10.7405 1.02286 11.6644 0.919398 12.7558C0.820312 13.8122 0.820312 15.1061 0.820312 16.7279V19.0783C0.820312 21.8527 0.820312 24.0428 1.04326 25.7549C1.27057 27.5108 1.75143 28.9286 2.83554 30.0491C3.92402 31.1755 5.30831 31.6797 7.02482 31.9172C8.68596 32.1489 10.8105 32.1489 13.4858 32.1489H19.4834C22.1587 32.1489 24.2832 32.1489 25.9444 31.9172C27.6594 31.6797 29.0452 31.1755 30.1351 30.0491C31.2178 28.9286 31.6986 27.5108 31.9274 25.7549C32.1489 24.0428 32.1489 21.8527 32.1489 19.0783V16.7279C32.1489 15.1061 32.1489 13.8136 32.0498 12.7558C31.9478 11.6629 31.7336 10.7405 31.2586 9.87354C30.7821 9.00362 30.122 8.33479 29.2652 7.67762C28.4375 7.04231 27.3622 6.3764 26.0201 5.54291L23.0082 3.6734C21.5904 2.79328 20.4538 2.08803 19.4703 1.61008C18.4546 1.11466 17.5177 0.820312 16.4846 0.820312ZM11.064 5.56185C12.543 4.64385 13.5849 3.9998 14.4548 3.57577C15.3014 3.1634 15.9017 3.00603 16.4846 3.00603C17.0674 3.00603 17.6678 3.1634 18.5144 3.57577C19.3858 3.99834 20.4262 4.64385 21.9052 5.56185L24.8194 7.37017C26.2198 8.24008 27.2033 8.85062 27.9377 9.41308C28.6503 9.95951 29.0597 10.4098 29.341 10.9227C29.6222 11.437 29.7868 12.0388 29.8728 12.9598C29.9617 13.904 29.9632 15.0945 29.9632 16.7818V18.9982C29.9632 21.8687 29.9602 23.9175 29.7592 25.4722C29.561 26.9993 29.1865 27.8853 28.5643 28.5308C27.945 29.1705 27.1028 29.5508 25.6442 29.7533C24.1492 29.9602 22.1776 29.9632 19.3989 29.9632H13.5703C10.7901 29.9632 8.82002 29.9602 7.32499 29.7533C5.8664 29.5493 5.02417 29.1705 4.40634 28.5293C3.78268 27.8853 3.4082 26.9993 3.21148 25.4722C3.00748 23.9175 3.00603 21.8702 3.00603 18.9982V16.7818C3.00603 15.0945 3.00603 13.904 3.09637 12.9598C3.18234 12.0388 3.347 11.437 3.62823 10.9227C3.90945 10.4098 4.31891 9.95951 5.03291 9.41308C5.76585 8.85062 6.74942 8.24008 8.14974 7.37017L11.064 5.56185Z" fill="white"/>
</svg>
