<svg width="20" height="20" viewBox="0 0 20 20" fill="none" xmlns="http://www.w3.org/2000/svg">
<path d="M18.6125 19.75C16.3556 19.75 14.1257 19.2582 11.9229 18.2745C9.72014 17.2908 7.71597 15.8959 5.91042 14.0896C4.10486 12.2833 2.71025 10.2791 1.72658 8.07708C0.742917 5.87503 0.250722 3.64517 0.25 1.3875C0.25 1.0625 0.358333 0.791667 0.575 0.575C0.791667 0.358333 1.0625 0.25 1.3875 0.25H5.775C6.02778 0.25 6.25347 0.335944 6.45208 0.507833C6.6507 0.679722 6.76806 0.882667 6.80417 1.11667L7.50833 4.90833C7.54444 5.19722 7.53542 5.44097 7.48125 5.63958C7.42708 5.83819 7.32778 6.00972 7.18333 6.15417L4.55625 8.80833C4.91736 9.47639 5.346 10.1217 5.84217 10.7443C6.33833 11.3668 6.8847 11.9673 7.48125 12.5458C8.04097 13.1056 8.62778 13.6248 9.24167 14.1037C9.85556 14.5825 10.5056 15.0202 11.1917 15.4167L13.7375 12.8708C13.9 12.7083 14.1123 12.5866 14.3745 12.5057C14.6367 12.4249 14.8938 12.4021 15.1458 12.4375L18.8833 13.1958C19.1361 13.2681 19.3438 13.3991 19.5063 13.5891C19.6688 13.779 19.75 13.991 19.75 14.225V18.6125C19.75 18.9375 19.6417 19.2083 19.425 19.425C19.2083 19.6417 18.9375 19.75 18.6125 19.75ZM3.52708 6.75L5.31458 4.9625L4.85417 2.41667H2.44375C2.53403 3.15694 2.66042 3.88819 2.82292 4.61042C2.98542 5.33264 3.22014 6.04583 3.52708 6.75ZM13.2229 16.4458C13.9271 16.7528 14.645 16.9965 15.3766 17.1771C16.1082 17.3576 16.8438 17.475 17.5833 17.5292V15.1458L15.0375 14.6313L13.2229 16.4458Z" fill="#1F9FE6"/>
</svg>
