<svg width="22" height="24" viewBox="0 0 22 24" fill="none" xmlns="http://www.w3.org/2000/svg">
<path d="M17.9772 0C20.0892 0 21.7992 1.74 21.7992 3.882C21.7992 6.024 20.0904 7.7628 17.9772 7.7628C17.4363 7.76205 16.9018 7.64558 16.4096 7.42122C15.9175 7.19686 15.479 6.8698 15.1236 6.462L7.58282 10.59C7.75082 11.0268 7.84202 11.502 7.84202 12C7.84202 12.6504 7.68602 13.2624 7.40642 13.8012L14.616 18.2712C14.9392 17.6593 15.4227 17.1467 16.0148 16.7884C16.6068 16.4301 17.2852 16.2396 17.9772 16.2372C20.0892 16.2372 21.7992 17.9772 21.7992 20.118C21.7992 22.2588 20.0904 24 17.9772 24C15.8652 24 14.1564 22.26 14.1564 20.118L14.16 19.9524L6.32402 15.0972C5.66398 15.6065 4.85369 15.8825 4.02002 15.882C1.90922 15.882 0.199219 14.142 0.199219 12C0.199219 9.858 1.90802 8.118 4.02122 8.118C5.04362 8.118 5.97242 8.526 6.65762 9.1896L14.316 4.998C14.2099 4.63552 14.1561 4.25971 14.1564 3.882C14.1552 1.74 15.8652 0 17.9772 0ZM17.9772 17.9112C16.7868 17.9112 15.8172 18.8976 15.8172 20.1192C15.8172 21.3396 16.7868 22.326 17.9772 22.326C19.1688 22.326 20.1372 21.3396 20.1372 20.118C20.1372 18.8976 19.1688 17.9112 17.9772 17.9112ZM4.02122 9.7932C2.82962 9.7932 1.86122 10.7796 1.86122 12C1.86122 13.2204 2.82962 14.208 4.02122 14.208C5.21162 14.208 6.18122 13.2204 6.18122 12C6.18122 10.7796 5.21162 9.792 4.02122 9.792M17.9772 1.6728C16.7868 1.6728 15.8172 2.6592 15.8172 3.8808C15.8172 5.1012 16.7868 6.0876 17.9772 6.0876C19.1688 6.0876 20.1372 5.1012 20.1372 3.8796C20.1372 2.6592 19.1688 1.6728 17.9772 1.6728Z" fill="#0071C4"/>
</svg>
