<svg width="18" height="21" viewBox="0 0 18 21" fill="none" xmlns="http://www.w3.org/2000/svg">
<path d="M15 20.5C14.1667 20.5 13.4583 20.2083 12.875 19.625C12.2917 19.0417 12 18.3333 12 17.5C12 17.4 12.025 17.1667 12.075 16.8L5.05 12.7C4.78333 12.95 4.475 13.146 4.125 13.288C3.775 13.43 3.4 13.5007 3 13.5C2.16667 13.5 1.45833 13.2083 0.875 12.625C0.291667 12.0417 0 11.3333 0 10.5C0 9.66667 0.291667 8.95833 0.875 8.375C1.45833 7.79167 2.16667 7.5 3 7.5C3.4 7.5 3.775 7.571 4.125 7.713C4.475 7.855 4.78333 8.05067 5.05 8.3L12.075 4.2C12.0417 4.08333 12.021 3.971 12.013 3.863C12.005 3.755 12.0007 3.634 12 3.5C12 2.66667 12.2917 1.95833 12.875 1.375C13.4583 0.791667 14.1667 0.5 15 0.5C15.8333 0.5 16.5417 0.791667 17.125 1.375C17.7083 1.95833 18 2.66667 18 3.5C18 4.33333 17.7083 5.04167 17.125 5.625C16.5417 6.20833 15.8333 6.5 15 6.5C14.6 6.5 14.225 6.429 13.875 6.287C13.525 6.145 13.2167 5.94933 12.95 5.7L5.925 9.8C5.95833 9.91667 5.97933 10.0293 5.988 10.138C5.99667 10.2467 6.00067 10.3673 6 10.5C5.99933 10.6327 5.99533 10.7537 5.988 10.863C5.98067 10.9723 5.95967 11.0847 5.925 11.2L12.95 15.3C13.2167 15.05 13.525 14.8543 13.875 14.713C14.225 14.5717 14.6 14.5007 15 14.5C15.8333 14.5 16.5417 14.7917 17.125 15.375C17.7083 15.9583 18 16.6667 18 17.5C18 18.3333 17.7083 19.0417 17.125 19.625C16.5417 20.2083 15.8333 20.5 15 20.5ZM15 18.5C15.2833 18.5 15.521 18.4043 15.713 18.213C15.905 18.0217 16.0007 17.784 16 17.5C15.9993 17.216 15.9033 16.9787 15.712 16.788C15.5207 16.5973 15.2833 16.5013 15 16.5C14.7167 16.4987 14.4793 16.5947 14.288 16.788C14.0967 16.9813 14.0007 17.2187 14 17.5C13.9993 17.7813 14.0953 18.019 14.288 18.213C14.4807 18.407 14.718 18.5027 15 18.5ZM3 11.5C3.28333 11.5 3.521 11.404 3.713 11.212C3.905 11.02 4.00067 10.7827 4 10.5C3.99933 10.2173 3.90333 9.98 3.712 9.788C3.52067 9.596 3.28333 9.5 3 9.5C2.71667 9.5 2.47933 9.596 2.288 9.788C2.09667 9.98 2.00067 10.2173 2 10.5C1.99933 10.7827 2.09533 11.0203 2.288 11.213C2.48067 11.4057 2.718 11.5013 3 11.5ZM15 4.5C15.2833 4.5 15.521 4.404 15.713 4.212C15.905 4.02 16.0007 3.78267 16 3.5C15.9993 3.21733 15.9033 2.98 15.712 2.788C15.5207 2.596 15.2833 2.5 15 2.5C14.7167 2.5 14.4793 2.596 14.288 2.788C14.0967 2.98 14.0007 3.21733 14 3.5C13.9993 3.78267 14.0953 4.02033 14.288 4.213C14.4807 4.40567 14.718 4.50133 15 4.5Z" fill="black"/>
</svg>
