<svg width="26" height="18" viewBox="0 0 26 18" fill="none" xmlns="http://www.w3.org/2000/svg">
<path d="M4.5625 0.25C3.48506 0.25 2.45174 0.678012 1.68988 1.43988C0.928012 2.20175 0.5 3.23506 0.5 4.3125V13.6875C0.5 14.7649 0.928012 15.7983 1.68988 16.5601C2.45174 17.322 3.48506 17.75 4.5625 17.75H13.9375C15.0149 17.75 16.0483 17.322 16.8101 16.5601C17.572 15.7983 18 14.7649 18 13.6875V13.2975L22.0725 16.11C23.5225 17.11 25.5025 16.0725 25.5025 14.31V3.68875C25.5025 1.92625 23.5225 0.88625 22.0725 1.88875L18 4.7025V4.3125C18 3.23506 17.572 2.20175 16.8101 1.43988C16.0483 0.678012 15.0149 0.25 13.9375 0.25H4.5625ZM18 6.98L23.1375 3.4325C23.1844 3.40012 23.2393 3.38119 23.2962 3.37776C23.3531 3.37434 23.4099 3.38655 23.4604 3.41307C23.5108 3.43959 23.5531 3.47941 23.5825 3.52823C23.612 3.57704 23.6276 3.63299 23.6275 3.69V14.3088C23.6276 14.3658 23.612 14.4217 23.5825 14.4705C23.5531 14.5193 23.5108 14.5592 23.4604 14.5857C23.4099 14.6122 23.3531 14.6244 23.2962 14.621C23.2393 14.6176 23.1844 14.5986 23.1375 14.5662L18 11.0187V6.98ZM2.375 4.3125C2.375 3.105 3.355 2.125 4.5625 2.125H13.9375C15.145 2.125 16.125 3.105 16.125 4.3125V13.6875C16.125 14.2677 15.8945 14.8241 15.4843 15.2343C15.0741 15.6445 14.5177 15.875 13.9375 15.875H4.5625C3.98234 15.875 3.42594 15.6445 3.0157 15.2343C2.60547 14.8241 2.375 14.2677 2.375 13.6875V4.3125Z" fill="#1F9FE6"/>
</svg>
