<svg width="23" height="23" viewBox="0 0 23 23" fill="none" xmlns="http://www.w3.org/2000/svg">
<path d="M19.3034 3.81858C18.3102 2.81533 17.1272 2.01989 15.8233 1.47864C14.5195 0.937384 13.1209 0.661162 11.7092 0.66608C5.79422 0.66608 0.973386 5.48691 0.973386 11.4019C0.973386 13.2977 1.47172 15.1394 2.40339 16.7644L0.886719 22.3327L6.57422 20.8377C8.14505 21.6936 9.91088 22.1486 11.7092 22.1486C17.6242 22.1486 22.4451 17.3277 22.4451 11.4127C22.4451 8.54191 21.3292 5.84441 19.3034 3.81858ZM11.7092 20.3286C10.1059 20.3286 8.53505 19.8952 7.15922 19.0827L6.83422 18.8877L3.45422 19.7761L4.35339 16.4827L4.13672 16.1469C3.24594 14.7245 2.77295 13.0803 2.77172 11.4019C2.77172 6.48358 6.78005 2.47525 11.6984 2.47525C14.0817 2.47525 16.3242 3.40691 18.0034 5.09691C18.8348 5.92454 19.4937 6.90896 19.9419 7.99312C20.3901 9.07728 20.6186 10.2396 20.6142 11.4127C20.6359 16.3311 16.6276 20.3286 11.7092 20.3286ZM16.6059 13.6552C16.3351 13.5252 15.0134 12.8752 14.7751 12.7777C14.5259 12.6911 14.3526 12.6477 14.1684 12.9077C13.9842 13.1786 13.4751 13.7852 13.3234 13.9586C13.1717 14.1427 13.0092 14.1644 12.7384 14.0236C12.4676 13.8936 11.6009 13.6011 10.5826 12.6911C9.78088 11.9761 9.25005 11.0986 9.08755 10.8277C8.93588 10.5569 9.06588 10.4161 9.20672 10.2752C9.32588 10.1561 9.47755 9.96108 9.60755 9.80941C9.73755 9.65775 9.79172 9.53858 9.87838 9.36525C9.96505 9.18108 9.92172 9.02941 9.85672 8.89941C9.79172 8.76941 9.25005 7.44775 9.03338 6.90608C8.81672 6.38608 8.58922 6.45108 8.42672 6.44025H7.90672C7.72255 6.44025 7.44088 6.50525 7.19172 6.77608C6.95338 7.04691 6.26005 7.69691 6.26005 9.01858C6.26005 10.3402 7.22422 11.6186 7.35422 11.7919C7.48422 11.9761 9.25005 14.6844 11.9367 15.8436C12.5759 16.1252 13.0742 16.2877 13.4642 16.4069C14.1034 16.6127 14.6884 16.5802 15.1542 16.5152C15.6742 16.4394 16.7467 15.8652 16.9634 15.2369C17.1909 14.6086 17.1909 14.0777 17.1151 13.9586C17.0392 13.8394 16.8767 13.7852 16.6059 13.6552Z" fill="black"/>
</svg>
